{"title":"Henrys.Crime.2010.720p.BRRip.x264.Feel-Free","uid":6451119,"size":2369995786,"categoryP":"video","categoryS":"hd___movies","magnet":"?xt=urn:btih:058c0d161031dbe4aeb5dfb5d207b1b7e28fa913&amp;dn=Henrys.Crime.2010.720p.BRRip.x264.Feel-Free&amp;tr=udp%3A%2F%2Ftracker.openbittorrent.com%3A80&amp;tr=udp%3A%2F%2Fopen.demonii.com%3A1337&amp;tr=udp%3A%2F%2Ftracker.coppersurfer.tk%3A6969&amp;tr=udp%3A%2F%2Fexodus.desync.com%3A6969","seeders":0,"leechers":1,"uploader":"hiest","files":-1,"time":1307432850,"description":"Full Credits to (Pitic):\n\n ######## ######## ######## ##          ######## ########  ######## ######\n ##       ##       ##       ##          ##       ##     ## ##       ##       \n ##       ##       ##       ##          ##       ##     ## ##       ##       \n ######   ######   ######   ##          ######   ########  ######   ######   \n ##       ##       ##       ##          ##       ##   ##   ##       ##       \n ##       ##       ##       ##          ##       ##    ##  ##       ##       \n ##       ######## ######## ########    ##       ##     ## ######## ######\n\nGenre:Comedy \n Language:English\n IMDb: &lt;a href=&quot;\nhttp://www.imdb.com/title/tt1220888/&quot; rel=&quot;nofollow&quot; target=&quot;_NEW&quot;&gt;\nhttp://www.imdb.com/title/tt1220888/&lt;/a&gt;\n Source:BluRay.X264-AVCHD Thanks!\n Subtitles:Romana\n\n Format : MPEG-4\n Format profile : Base Media\n Codec ID : isom\n File size : 2.20 GiB\n Duration : 1h 47mn\n Overall bit rate : 2 927 Kbps\n\n Video\n ID : 1\n Format : AVC\n Format/Info : Advanced Video Codec\n Format profile : &lt;a class=&quot;__cf_email__&quot; href=&quot;/cdn-cgi/l/email-protection&quot; data-cfemail=&quot;672f0e000f272b534956&quot;&gt;[email&amp;#160;protected]&lt;/a&gt;&lt;script cf-hash='f9e31' type=&quot;text/javascript&quot;&gt;\n/* &lt;![CDATA[ */!function(){try{var t=&quot;currentScript&quot;in document?document.currentScript:function(){for(var t=document.getElementsByTagName(&quot;script&quot;),e=t.length;e--;)if(t[e].getAttribute(&quot;cf-hash&quot;))return t[e]}();if(t&amp;&amp;t.previousSibling){var e,r,n,i,c=t.previousSibling,a=c.getAttribute(&quot;data-cfemail&quot;);if(a){for(e=&quot;&quot;,r=parseInt(a.substr(0,2),16),n=2;a.length-n;n+=2)i=parseInt(a.substr(n,2),16)^r,e+=String.fromCharCode(i);e=document.createTextNode(e),c.parentNode.replaceChild(e,c)}}}catch(u){}}();/* ]]&gt; */&lt;/script&gt;\n Format settings, CABAC : Yes\n Format settings, ReFrames : 3 frames\n Codec ID : avc1\n Codec ID/Info : Advanced Video Coding\n Duration : 1h 47mn\n Bit rate mode : Variable\n Bit rate : 2 500 Kbps\n Maximum bit rate : 10.1 Mbps\n Width : 1 280 pixels\n Height : 528 pixels\n Display aspect ratio : 2.40:1\n Frame rate mode : Constant\n Frame rate : 23.976 fps\n Color space : YUV\n Chroma subsampling : 4:2:0\n Bit depth : 8 bits\n Scan type : Progressive\n Bits/(Pixel*Frame) : 0.154\n Stream size : 1.87 GiB (85%)\n Writing library : x264\n\n Audio\n ID : 2\n Format : AAC\n Format/Info : Advanced Audio Codec\n Format version : Version 4\n Format profile : LC\n Format settings, SBR : No\n Codec ID : 40\n Duration : 1h 47mn\n Bit rate mode : Variable\n Bit rate : 443 Kbps\n Maximum bit rate : 533 Kbps\n Channel(s) : 6 channels\n Channel positions : Front: L C R, Side: L R, LFE\n Sampling rate : 48.0 KHz\n Stream size : 342 MiB (15%)\n\n\n Plot:\n Released from prison for a crime he didn't commit, an ex-con targets the same bank he was sent away for robbing\n\n\n\nGreets:\n\n INK,CRYS,IMAGINE,LKRG,FXG,3Li,FLAWL3SS,TA,iLLUSiON,ViSiON,DTRG SAFCuk009,LU,TheFalcon007,MYSTiC,PrisM,Noir,WBZ,LAP,Rx,Kingdom,SAFCuk009+Fabreezy,HDLiTE,TWiZTED,ExtraTorrentRG.ELEKTRI4KA,MAGNAT,CM8\n And to all the other p2p grps past and present\n\n\n\n\n ==================================\n &lt;a href=&quot; http://thepiratebay.se/user/hiest&quot; rel=&quot;nofollow&quot; target=&quot;_NEW&quot;&gt; http://thepiratebay.se/user/hiest&lt;/a&gt;\n ==================================\n\n\n\n\nScreenshots:\n &lt;a href=&quot;\nhttp://leetleech.org/images/07780409210244397083.png&quot; rel=&quot;nofollow&quot; target=&quot;_NEW&quot;&gt;\nhttp://leetleech.org/images/07780409210244397083.png&lt;/a&gt;\n &lt;a href=&quot;\nhttp://leetleech.org/images/97145210564830755635.png&quot; rel=&quot;nofollow&quot; target=&quot;_NEW&quot;&gt;\nhttp://leetleech.org/images/97145210564830755635.png&lt;/a&gt;\n &lt;a href=&quot;\nhttp://leetleech.org/images/34848049437562166649.png&quot; rel=&quot;nofollow&quot; target=&quot;_NEW&quot;&gt;\nhttp://leetleech.org/images/34848049437562166649.png&lt;/a&gt;\n &lt;a href=&quot;\nhttp://leetleech.org/images/04569738324400560950.png&quot; rel=&quot;nofollow&quot; target=&quot;_NEW&quot;&gt;\nhttp://leetleech.org/images/04569738324400560950.png&lt;/a&gt;\n &lt;a href=&quot;\nhttp://leetleech.org/images/01208422413251995942.png&quot; rel=&quot;nofollow&quot; target=&quot;_NEW&quot;&gt;\nhttp://leetleech.org/images/01208422413251995942.png&lt;/a&gt;\n\n\nFull Credits to (Pitic):\n\n ######## ######## ######## ##          ######## ########  ######## ######\n ##       ##       ##       ##          ##       ##     ## ##       ##       \n ##       ##       ##       ##          ##       ##     ## ##       ##       \n ######   ######   ######   ##          ######   ########  ######   ######   \n ##       ##       ##       ##          ##       ##   ##   ##       ##       \n ##       ##       ##       ##          ##       ##    ##  ##       ##       \n ##       ######## ######## ########    ##       ##     ## ######## ######\n","torrent":{"xt":"urn:btih:058c0d161031dbe4aeb5dfb5d207b1b7e28fa913","amp;dn":"Henrys.Crime.2010.720p.BRRip.x264.Feel-Free","amp;tr":["udp%3A%2F%2Ftracker.openbittorrent.com%3A80","udp%3A%2F%2Fopen.demonii.com%3A1337","udp%3A%2F%2Ftracker.coppersurfer.tk%3A6969","udp%3A%2F%2Fexodus.desync.com%3A6969"],"infoHash":"058c0d161031dbe4aeb5dfb5d207b1b7e28fa913","infoHashBuffer":{"type":"Buffer","data":[5,140,13,22,16,49,219,228,174,181,223,181,210,7,177,183,226,143,169,19]},"announce":[],"urlList":[]}}